# xmcd CD database file
#
# Track frame offsets:
#	150
#	14028
#	30687
#	46291
#	64659
#	82398
#	96361
#	114610
#	122544
#	136048
#	151635
#	168438
#
# Disc length: 2966 seconds
#
# Revision: 0
# Processed by: cddbd v1.5.1PL2 Copyright (c) Steve Scherf et al.
# Submitted via: CDex 1.40Release
#
DISCID=9a0b940c
DTITLE=Brennholz Bluesband - Aufgeklappt in den Gulli rein
DYEAR=2003
DGENRE=Blues
TTITLE0=Nie ohne Grund
TTITLE1=Der Leuteschinder
TTITLE2=San Francisco CA
TTITLE3=Karriere
TTITLE4=Warnung
TTITLE5=Schrei nicht so laut
TTITLE6=Lottokönig
TTITLE7=Ist der Nudelsalat fertig
TTITLE8=Von deiner Sorte
TTITLE9=Wieder da
TTITLE10=New York
TTITLE11=Der Leck-Mich-Blues
EXTD=YEAR: 2003 ID3G: 0
EXTT0=
EXTT1=
EXTT2=
EXTT3=
EXTT4=
EXTT5=
EXTT6=
EXTT7=
EXTT8=
EXTT9=
EXTT10=
EXTT11=
PLAYORDER=
